<svg viewBox="0 0 290 160" xmlns="http://www.w3.org/2000/svg" fill-rule="evenodd" clip-rule="evenodd" stroke-linecap="square" stroke-miterlimit="1.5"><path d="M71.126 124.502H7.771c-.714-.081-1.21-.239-1.334-1.334V9.053c.081-.714.24-1.21 1.334-1.334h178.098l.297.034c.607.212.962.64 1.036 1.3v114.115c-.08.714-.239 1.21-1.333 1.334h-67.303c.416 4.491.783 8.985 1.365 13.481.628 4.582 5.017 7.644 8.582 10.93 1.693 1.643-1.8 3.423-7.087 3.477-17.721.061-35.441.061-53.161 0a36.309 36.309 0 0 1-3.181-.17 26.345 26.345 0 0 1-1.082-.126 17.618 17.618 0 0 1-.792-.125 9.114 9.114 0 0 1-.885-.201c-1.082-.3-3.096-1.058-.817-3.159 3.856-3.536 7.767-6.332 8.39-11.754.474-4.117.85-8.235 1.228-12.353zm45.45.189h-43.46c-.691 7.413.086 15.809-4.613 20.226l-4.946 4.526s-.869.374-.223.513c1.619.326 3.284.417 4.944.434 17.712.061 35.423.061 53.134 0 1.697-.017 3.402-.101 5.051-.457l.163-.039c-3.938-3.61-8.071-6.804-8.722-11.986-.514-4.095-.91-8.726-1.328-13.217zm67.96-114.305H9.104v111.449h175.432V10.386z" fill="#fff" fill-rule="nonzero"/><g transform="matrix(.82857 0 0 .82857 -1195.01 -603.298)"><circle cx="1503.05" cy="788.664" r="31.128" fill="none"/><clipPath id="a"><circle cx="1503.05" cy="788.664" r="31.128"/></clipPath><g clip-path="url(#a)"><path fill="#61dafb" stroke="#fff" stroke-width=".11" d="M1512.79 757.943h9.978v9.978h-9.978z" transform="matrix(1.51659 0 0 1.51659 -821.555 -391.144)"/><path fill="#2068a0" stroke="#fff" stroke-width=".11" d="M1512.79 757.943h9.978v9.978h-9.978z" transform="matrix(1.51659 0 0 1.51659 -806.386 -391.144)"/><path fill="none" stroke="#fff" stroke-width=".11" d="M1512.79 757.943h9.978v9.978h-9.978z" transform="matrix(1.51659 0 0 1.51659 -791.218 -391.144)"/><path fill="none" stroke="#fff" stroke-width=".11" d="M1512.79 757.943h9.978v9.978h-9.978z" transform="matrix(1.51659 0 0 1.51659 -776.065 -391.144)"/><path fill="#2068a0" stroke="#fff" stroke-width=".11" d="M1512.79 757.943h9.978v9.978h-9.978z" transform="matrix(1.51659 0 0 1.51659 -821.555 -375.978)"/><path fill="#61dafb" stroke="#fff" stroke-width=".11" d="M1512.79 757.943h9.978v9.978h-9.978z" transform="matrix(1.51659 0 0 1.51659 -806.386 -375.978)"/><path fill="#2068a0" stroke="#fff" stroke-width=".11" d="M1512.79 757.943h9.978v9.978h-9.978z" transform="matrix(1.51659 0 0 1.51659 -791.218 -375.978)"/><path fill="none" stroke="#fff" stroke-width=".11" d="M1512.79 757.943h9.978v9.978h-9.978z" transform="matrix(1.51659 0 0 1.51659 -776.065 -375.978)"/><path fill="none" stroke="#fff" stroke-width=".11" d="M1512.79 757.943h9.978v9.978h-9.978z" transform="matrix(1.51659 0 0 1.51659 -821.555 -360.813)"/><path fill="#2068a0" stroke="#fff" stroke-width=".11" d="M1512.79 757.943h9.978v9.978h-9.978z" transform="matrix(1.51659 0 0 1.51659 -806.386 -360.813)"/><path fill="#61dafb" stroke="#fff" stroke-width=".11" d="M1512.79 757.943h9.978v9.978h-9.978z" transform="matrix(1.51659 0 0 1.51659 -791.218 -360.813)"/><path fill="#2068a0" stroke="#fff" stroke-width=".11" d="M1512.79 757.943h9.978v9.978h-9.978z" transform="matrix(1.51659 0 0 1.51659 -776.065 -360.813)"/><path fill="none" stroke="#fff" stroke-width=".11" d="M1512.79 757.943h9.978v9.978h-9.978z" transform="matrix(1.51659 0 0 1.51659 -821.54 -345.647)"/><path fill="none" stroke="#fff" stroke-width=".11" d="M1512.79 757.943h9.978v9.978h-9.978z" transform="matrix(1.51659 0 0 1.51659 -806.386 -345.647)"/><path fill="#2068a0" stroke="#fff" stroke-width=".11" d="M1512.79 757.943h9.978v9.978h-9.978z" transform="matrix(1.51659 0 0 1.51659 -791.218 -345.647)"/><path fill="#61dafb" stroke="#fff" stroke-width=".11" d="M1512.79 757.943h9.978v9.978h-9.978z" transform="matrix(1.51659 0 0 1.51659 -776.065 -345.647)"/></g></g><path d="M50.55 23.71c9.596.09 18.892 5.77 23.317 14.274 3.753 7.215 3.91 16.17.43 23.506-4.25 8.945-13.828 15.073-23.746 15.136-9.91.063-19.588-5.943-23.946-14.847-3.555-7.249-3.522-16.144.066-23.367 4.267-8.582 13.365-14.48 23.192-14.698.232-.003.456-.005.688-.004zm-.33 1.333c-11.477.108-22.231 8.86-24.485 20.216-1.616 8.153 1.127 17.058 7.092 22.883 6.969 6.798 18.03 8.98 27.045 5.293 8.046-3.289 14.11-11.01 15.362-19.598 1.558-10.604-4.5-21.892-14.243-26.447-3.356-1.567-7.043-2.359-10.772-2.347z" fill="#fff" fill-rule="nonzero"/><g transform="matrix(.82857 0 0 .82857 -1102.19 -604.462)"><circle cx="1503.05" cy="788.664" r="31.128" fill="none"/><clipPath id="b"><circle cx="1503.05" cy="788.664" r="31.128"/></clipPath><g clip-path="url(#b)"><path fill="#61dafb" stroke="#fff" stroke-width=".21" d="M1512.79 757.943h9.978v9.978h-9.978z" transform="matrix(.76005 0 0 .76005 322.912 182.252)"/><path fill="#61dafb" stroke="#fff" stroke-width=".21" d="M1512.79 757.943h9.978v9.978h-9.978z" transform="matrix(.76005 0 0 .76005 330.494 182.252)"/><path fill="#2068a0" stroke="#fff" stroke-width=".21" d="M1512.79 757.943h9.978v9.978h-9.978z" transform="matrix(.76005 0 0 .76005 338.077 182.252)"/><path fill="none" stroke="#fff" stroke-width=".21" d="M1512.79 757.943h9.978v9.978h-9.978z" transform="matrix(.76005 0 0 .76005 345.661 182.252)"/><path fill="none" stroke="#fff" stroke-width=".21" d="M1512.79 757.943h9.978v9.978h-9.978z" transform="matrix(.76005 0 0 .76005 353.244 182.252)"/><path fill="none" stroke="#fff" stroke-width=".21" d="M1512.79 757.943h9.978v9.978h-9.978z" transform="matrix(.76005 0 0 .76005 360.828 182.252)"/><path fill="none" stroke="#fff" stroke-width=".21" d="M1512.79 757.943h9.978v9.978h-9.978z" transform="matrix(.76005 0 0 .76005 368.41 182.252)"/><path fill="none" stroke="#fff" stroke-width=".21" d="M1512.79 757.943h9.978v9.978h-9.978z" transform="matrix(.76005 0 0 .76005 375.993 182.252)"/><path fill="#61dafb" stroke="#fff" stroke-width=".21" d="M1512.79 757.943h9.978v9.978h-9.978z" transform="matrix(.76005 0 0 .76005 322.912 189.836)"/><path fill="#61dafb" stroke="#fff" stroke-width=".21" d="M1512.79 757.943h9.978v9.978h-9.978z" transform="matrix(.76005 0 0 .76005 330.494 189.836)"/><path fill="#61dafb" stroke="#fff" stroke-width=".21" d="M1512.79 757.943h9.978v9.978h-9.978z" transform="matrix(.76005 0 0 .76005 338.077 189.836)"/><path fill="#2068a0" stroke="#fff" stroke-width=".21" d="M1512.79 757.943h9.978v9.978h-9.978z" transform="matrix(.76005 0 0 .76005 345.661 189.836)"/><path fill="none" stroke="#fff" stroke-width=".21" d="M1512.79 757.943h9.978v9.978h-9.978z" transform="matrix(.76005 0 0 .76005 353.244 189.836)"/><path fill="none" stroke="#fff" stroke-width=".21" d="M1512.79 757.943h9.978v9.978h-9.978z" transform="matrix(.76005 0 0 .76005 360.828 189.836)"/><path fill="none" stroke="#fff" stroke-width=".21" d="M1512.79 757.943h9.978v9.978h-9.978z" transform="matrix(.76005 0 0 .76005 368.41 189.836)"/><path fill="none" stroke="#fff" stroke-width=".21" d="M1512.79 757.943h9.978v9.978h-9.978z" transform="matrix(.76005 0 0 .76005 375.993 189.836)"/><path fill="#2068a0" stroke="#fff" stroke-width=".21" d="M1512.79 757.943h9.978v9.978h-9.978z" transform="matrix(.76005 0 0 .76005 322.912 197.419)"/><path fill="#61dafb" stroke="#fff" stroke-width=".21" d="M1512.79 757.943h9.978v9.978h-9.978z" transform="matrix(.76005 0 0 .76005 330.494 197.419)"/><path fill="#61dafb" stroke="#fff" stroke-width=".21" d="M1512.79 757.943h9.978v9.978h-9.978z" transform="matrix(.76005 0 0 .76005 338.077 197.419)"/><path fill="#61dafb" stroke="#fff" stroke-width=".21" d="M1512.79 757.943h9.978v9.978h-9.978z" transform="matrix(.76005 0 0 .76005 345.661 197.419)"/><path fill="#2068a0" stroke="#fff" stroke-width=".21" d="M1512.79 757.943h9.978v9.978h-9.978z" transform="matrix(.76005 0 0 .76005 353.244 197.419)"/><path fill="none" stroke="#fff" stroke-width=".21" d="M1512.79 757.943h9.978v9.978h-9.978z" transform="matrix(.76005 0 0 .76005 360.828 197.419)"/><path fill="none" stroke="#fff" stroke-width=".21" d="M1512.79 757.943h9.978v9.978h-9.978z" transform="matrix(.76005 0 0 .76005 368.41 197.419)"/><path fill="none" stroke="#fff" stroke-width=".21" d="M1512.79 757.943h9.978v9.978h-9.978z" transform="matrix(.76005 0 0 .76005 375.993 197.419)"/><path fill="none" stroke="#fff" stroke-width=".21" d="M1512.79 757.943h9.978v9.978h-9.978z" transform="matrix(.76005 0 0 .76005 322.912 205.002)"/><path fill="#2068a0" stroke="#fff" stroke-width=".21" d="M1512.79 757.943h9.978v9.978h-9.978z" transform="matrix(.76005 0 0 .76005 330.494 205.002)"/><path fill="#61dafb" stroke="#fff" stroke-width=".21" d="M1512.79 757.943h9.978v9.978h-9.978z" transform="matrix(.76005 0 0 .76005 338.077 205.002)"/><path fill="#61dafb" stroke="#fff" stroke-width=".21" d="M1512.79 757.943h9.978v9.978h-9.978z" transform="matrix(.76005 0 0 .76005 345.661 205.002)"/><path fill="#61dafb" stroke="#fff" stroke-width=".21" d="M1512.79 757.943h9.978v9.978h-9.978z" transform="matrix(.76005 0 0 .76005 353.244 205.002)"/><path fill="#2068a0" stroke="#fff" stroke-width=".21" d="M1512.79 757.943h9.978v9.978h-9.978z" transform="matrix(.76005 0 0 .76005 360.828 205.002)"/><path fill="none" stroke="#fff" stroke-width=".21" d="M1512.79 757.943h9.978v9.978h-9.978z" transform="matrix(.76005 0 0 .76005 368.41 205.002)"/><path fill="none" stroke="#fff" stroke-width=".21" d="M1512.79 757.943h9.978v9.978h-9.978z" transform="matrix(.76005 0 0 .76005 375.993 205.002)"/><path fill="none" stroke="#fff" stroke-width=".21" d="M1512.79 757.943h9.978v9.978h-9.978z" transform="matrix(.76005 0 0 .76005 322.912 212.585)"/><path fill="none" stroke="#fff" stroke-width=".21" d="M1512.79 757.943h9.978v9.978h-9.978z" transform="matrix(.76005 0 0 .76005 330.494 212.585)"/><path fill="#2068a0" stroke="#fff" stroke-width=".21" d="M1512.79 757.943h9.978v9.978h-9.978z" transform="matrix(.76005 0 0 .76005 338.077 212.585)"/><path fill="#61dafb" stroke="#fff" stroke-width=".21" d="M1512.79 757.943h9.978v9.978h-9.978z" transform="matrix(.76005 0 0 .76005 345.661 212.585)"/><path fill="#61dafb" stroke="#fff" stroke-width=".21" d="M1512.79 757.943h9.978v9.978h-9.978z" transform="matrix(.76005 0 0 .76005 353.244 212.585)"/><path fill="#61dafb" stroke="#fff" stroke-width=".21" d="M1512.79 757.943h9.978v9.978h-9.978z" transform="matrix(.76005 0 0 .76005 360.828 212.585)"/><path fill="#2068a0" stroke="#fff" stroke-width=".21" d="M1512.79 757.943h9.978v9.978h-9.978z" transform="matrix(.76005 0 0 .76005 368.41 212.585)"/><path fill="none" stroke="#fff" stroke-width=".21" d="M1512.79 757.943h9.978v9.978h-9.978z" transform="matrix(.76005 0 0 .76005 375.993 212.585)"/><path fill="none" stroke="#fff" stroke-width=".21" d="M1512.79 757.943h9.978v9.978h-9.978z" transform="matrix(.76005 0 0 .76005 322.912 220.168)"/><path fill="none" stroke="#fff" stroke-width=".21" d="M1512.79 757.943h9.978v9.978h-9.978z" transform="matrix(.76005 0 0 .76005 330.494 220.168)"/><path fill="none" stroke="#fff" stroke-width=".21" d="M1512.79 757.943h9.978v9.978h-9.978z" transform="matrix(.76005 0 0 .76005 338.077 220.168)"/><path fill="#2068a0" stroke="#fff" stroke-width=".21" d="M1512.79 757.943h9.978v9.978h-9.978z" transform="matrix(.76005 0 0 .76005 345.661 220.168)"/><path fill="#61dafb" stroke="#fff" stroke-width=".21" d="M1512.79 757.943h9.978v9.978h-9.978z" transform="matrix(.76005 0 0 .76005 353.244 220.168)"/><path fill="#61dafb" stroke="#fff" stroke-width=".21" d="M1512.79 757.943h9.978v9.978h-9.978z" transform="matrix(.76005 0 0 .76005 360.828 220.168)"/><path fill="#61dafb" stroke="#fff" stroke-width=".21" d="M1512.79 757.943h9.978v9.978h-9.978z" transform="matrix(.76005 0 0 .76005 368.41 220.168)"/><path fill="#2068a0" stroke="#fff" stroke-width=".21" d="M1512.79 757.943h9.978v9.978h-9.978z" transform="matrix(.76005 0 0 .76005 375.993 220.168)"/><path fill="none" stroke="#fff" stroke-width=".21" d="M1512.79 757.943h9.978v9.978h-9.978z" transform="matrix(.76005 0 0 .76005 322.912 227.751)"/><path fill="none" stroke="#fff" stroke-width=".21" d="M1512.79 757.943h9.978v9.978h-9.978z" transform="matrix(.76005 0 0 .76005 330.494 227.751)"/><path fill="none" stroke="#fff" stroke-width=".21" d="M1512.79 757.943h9.978v9.978h-9.978z" transform="matrix(.76005 0 0 .76005 338.077 227.751)"/><path fill="none" stroke="#fff" stroke-width=".21" d="M1512.79 757.943h9.978v9.978h-9.978z" transform="matrix(.76005 0 0 .76005 345.661 227.751)"/><path fill="#2068a0" stroke="#fff" stroke-width=".21" d="M1512.79 757.943h9.978v9.978h-9.978z" transform="matrix(.76005 0 0 .76005 353.244 227.751)"/><path fill="#61dafb" stroke="#fff" stroke-width=".21" d="M1512.79 757.943h9.978v9.978h-9.978z" transform="matrix(.76005 0 0 .76005 360.828 227.751)"/><path fill="#61dafb" stroke="#fff" stroke-width=".21" d="M1512.79 757.943h9.978v9.978h-9.978z" transform="matrix(.76005 0 0 .76005 368.41 227.751)"/><path fill="#61dafb" stroke="#fff" stroke-width=".21" d="M1512.79 757.943h9.978v9.978h-9.978z" transform="matrix(.76005 0 0 .76005 375.993 227.751)"/><path fill="none" stroke="#fff" stroke-width=".21" d="M1512.79 757.943h9.978v9.978h-9.978z" transform="matrix(.76005 0 0 .76005 322.912 235.334)"/><path fill="none" stroke="#fff" stroke-width=".21" d="M1512.79 757.943h9.978v9.978h-9.978z" transform="matrix(.76005 0 0 .76005 330.494 235.334)"/><path fill="none" stroke="#fff" stroke-width=".21" d="M1512.79 757.943h9.978v9.978h-9.978z" transform="matrix(.76005 0 0 .76005 338.077 235.334)"/><path fill="none" stroke="#fff" stroke-width=".21" d="M1512.79 757.943h9.978v9.978h-9.978z" transform="matrix(.76005 0 0 .76005 345.661 235.334)"/><path fill="none" stroke="#fff" stroke-width=".21" d="M1512.79 757.943h9.978v9.978h-9.978z" transform="matrix(.76005 0 0 .76005 353.244 235.334)"/><path fill="#2068a0" stroke="#fff" stroke-width=".21" d="M1512.79 757.943h9.978v9.978h-9.978z" transform="matrix(.76005 0 0 .76005 360.828 235.334)"/><path fill="#61dafb" stroke="#fff" stroke-width=".21" d="M1512.79 757.943h9.978v9.978h-9.978z" transform="matrix(.76005 0 0 .76005 368.41 235.334)"/><path fill="#61dafb" stroke="#fff" stroke-width=".21" d="M1512.79 757.943h9.978v9.978h-9.978z" transform="matrix(.76005 0 0 .76005 375.993 235.334)"/></g></g><path d="M143.37 22.546c9.654.092 18.992 5.842 23.391 14.416 3.68 7.186 3.812 16.073.357 23.364-4.251 8.945-13.83 15.073-23.747 15.136-9.91.063-19.588-5.943-23.946-14.847-3.571-7.291-3.53-16.248.14-23.51 4.301-8.52 13.366-14.339 23.118-14.555.232-.003.456-.005.688-.004zm-.33 1.333c-11.477.11-22.24 8.894-24.485 20.216-1.616 8.153 1.127 17.059 7.092 22.883 6.969 6.798 18.03 8.98 27.045 5.293 8.046-3.289 14.11-11.01 15.362-19.598 1.558-10.627-4.508-21.898-14.243-26.447-3.356-1.567-7.043-2.359-10.772-2.347z" fill="#fff" fill-rule="nonzero"/><path d="M85.506 52.148l.001-3.873 16.722.007.001-3.596 5.894 5.535-5.898 5.531.001-3.597-16.721-.007z" fill="#61dafb"/><path d="M65.216 91.755v16.46h1.928v-7.847h6.419v7.874h1.878V92.336a.734.734 0 0 1 .104-.277.409.409 0 0 0 .082-.225.114.114 0 0 0-.029-.08h-2.006v7.055h-6.448v-6.42c.016-.14.05-.255.095-.343a.557.557 0 0 0 .066-.212.114.114 0 0 0-.03-.08h-2.06zM79.8 96.14v1.533h2.932v9.01H79.64v1.532h7.823v-1.532h-2.828V96.14h-4.834zm2.96-4.86c-.263.264-.395.59-.395.977 0 .37.132.687.396.951.264.264.578.396.95.396.37 0 .689-.132.965-.396.273-.264.41-.581.41-.951s-.137-.691-.41-.964a1.327 1.327 0 0 0-.966-.41 1.29 1.29 0 0 0-.95.396zM91.637 91.755v16.487h3.513c1.304 0 2.394-.185 3.278-.555.879-.37 1.597-.912 2.15-1.625.558-.713.991-1.572 1.31-2.576.317-1.004.474-2.14.474-3.408 0-1.286-.132-2.44-.396-3.462-.265-1.02-.67-1.893-1.214-2.615a5.56 5.56 0 0 0-1.994-1.665c-.784-.387-1.883-.581-3.29-.581h-3.831zm1.742 1.559h1.981c1.85 0 3.167.607 3.951 1.823.784 1.215 1.185 2.897 1.201 5.046 0 2.132-.433 3.765-1.304 4.901-.875 1.136-2.254 1.704-4.137 1.704H93.38V93.314zM104.98 91.755v16.46h1.902v-7.266h3.514c.9 0 1.66-.118 2.287-.356.623-.238 1.135-.56 1.531-.965.396-.405.694-.885.896-1.44.202-.554.322-1.149.36-1.783a6.4 6.4 0 0 0-.36-1.797 4.129 4.129 0 0 0-.925-1.492c-.413-.432-.941-.767-1.585-1.004-.64-.238-1.42-.357-2.337-.357h-5.284zm1.902 1.744h3.328c.582 0 1.081.079 1.494.238.413.158.752.37 1.016.634s.462.577.594.938c.132.36.215.744.252 1.149-.054.863-.33 1.555-.834 2.074-.5.52-1.35.78-2.547.78h-3.303v-5.813zM118.958 91.755v1.559h3.063v13.369h-3.25v1.559h8.51v-1.533h-3.41V93.314h3.248v-1.56h-8.161z" fill="#61dafb" fill-rule="nonzero"/><g><path fill="#272c34" d="M172.643 78.5h103.925v66.59H172.643z"/><path d="M171.642 144.433V78.5c.083-.841.26-.927 1-1h103.924l.195.019c.725.22.761.529.805.98v65.934h5.572l.193.022c.395.138.626.416.674.845v4.63c-.085.75-.429.817-.867.866h-1.587l-2.368.989H169.941l-2.293-.99h-1.578c-.465-.051-.787-.154-.867-.865v-4.63c.052-.464.155-.787.867-.867h5.572zm110.63 1.734H166.936v2.896h115.336v-2.896zM275.566 79.5H173.642v64.589h101.924v-64.59z" fill="#fff" fill-rule="nonzero"/></g></svg>