<?xml version="1.0" encoding="UTF-8" standalone="no"?>
<svg width="179px" height="127px" viewBox="0 0 179 127" version="1.1" xmlns="http://www.w3.org/2000/svg" xmlns:xlink="http://www.w3.org/1999/xlink">
    <!-- Generator: Sketch 3.7.2 (28276) - http://www.bohemiancoding.com/sketch -->
    <title>plist-logo</title>
    <desc>Created with Sketch.</desc>
    <defs>
        <rect id="path-1" x="0" y="0" width="179" height="104"></rect>
        <mask id="mask-2" maskContentUnits="userSpaceOnUse" maskUnits="objectBoundingBox" x="0" y="0" width="179" height="104" fill="white">
            <use xlink:href="#path-1"></use>
        </mask>
        <rect id="path-3" x="63" y="101" width="54" height="26"></rect>
        <mask id="mask-4" maskContentUnits="userSpaceOnUse" maskUnits="objectBoundingBox" x="0" y="0" width="54" height="26" fill="white">
            <use xlink:href="#path-3"></use>
        </mask>
        <rect id="path-5" x="51" y="114" width="79" height="13"></rect>
        <mask id="mask-6" maskContentUnits="userSpaceOnUse" maskUnits="objectBoundingBox" x="0" y="0" width="79" height="13" fill="white">
            <use xlink:href="#path-5"></use>
        </mask>
    </defs>
    <g id="Page-1" stroke="none" stroke-width="1" fill="none" fill-rule="evenodd">
        <g id="plist-logo">
            <use id="Rectangle-1" stroke="#979797" mask="url(#mask-2)" stroke-width="10" fill="#FFFFFF" xlink:href="#path-1"></use>
            <path d="M37.3398438,24.0683594 L37.3398438,23.125 C38.2285201,23.038411 38.8483055,22.8937185 39.1992188,22.690918 C39.550132,22.4881175 39.8121736,22.0084673 39.9853516,21.2519531 L40.9560547,21.2519531 L40.9560547,31 L39.6435547,31 L39.6435547,24.0683594 L37.3398438,24.0683594 Z M45.6455078,28.6347656 C45.6819663,29.3138055 45.944008,29.7832018 46.4316406,30.0429688 C46.6822929,30.1796882 46.9648422,30.2480469 47.2792969,30.2480469 C47.8671904,30.2480469 48.3684875,30.0030949 48.7832031,29.5131836 C49.1979187,29.0232723 49.4918611,28.0286533 49.6650391,26.5292969 C49.3916002,26.9622417 49.0532247,27.2664379 48.6499023,27.4418945 C48.24658,27.6173511 47.8125023,27.7050781 47.3476562,27.7050781 C46.4042922,27.7050781 45.6580431,27.4111358 45.1088867,26.8232422 C44.5597303,26.2353486 44.2851562,25.4788458 44.2851562,24.5537109 C44.2851562,23.6650346 44.5563124,22.8834669 45.0986328,22.2089844 C45.6409532,21.5345018 46.4407499,21.1972656 47.4980469,21.1972656 C48.9244863,21.1972656 49.9088515,21.8398373 50.4511719,23.125 C50.7519546,23.8313837 50.9023438,24.7154895 50.9023438,25.7773438 C50.9023438,26.9759175 50.7223325,28.0377558 50.3623047,28.9628906 C49.7652965,30.5032629 48.7535879,31.2734375 47.3271484,31.2734375 C46.3701124,31.2734375 45.6432317,31.022789 45.1464844,30.5214844 C44.6497371,30.0201798 44.4013672,29.3912798 44.4013672,28.6347656 L45.6455078,28.6347656 Z M48.8481445,26.1430664 C49.2514669,25.8217757 49.453125,25.2600952 49.453125,24.4580078 C49.453125,23.7379521 49.2719745,23.2013364 48.909668,22.8481445 C48.5473615,22.4949527 48.0859403,22.3183594 47.5253906,22.3183594 C46.9238251,22.3183594 46.4464536,22.5200175 46.0932617,22.9233398 C45.7400698,23.3266622 45.5634766,23.8655565 45.5634766,24.5400391 C45.5634766,25.1780631 45.7184229,25.6850567 46.0283203,26.0610352 C46.3382177,26.4370136 46.8326789,26.625 47.5117188,26.625 C47.9993514,26.625 48.4448222,26.4643571 48.8481445,26.1430664 L48.8481445,26.1430664 Z M52.5327148,28.7988281 C52.8357763,28.174476 53.4270789,27.6070989 54.3066406,27.0966797 L55.6191406,26.3378906 C56.2070342,25.996092 56.619465,25.7044283 56.8564453,25.4628906 C57.2301451,25.0846335 57.4169922,24.6516951 57.4169922,24.1640625 C57.4169922,23.5943982 57.2460955,23.1420915 56.9042969,22.8071289 C56.5624983,22.4721663 56.1067737,22.3046875 55.5371094,22.3046875 C54.6940062,22.3046875 54.1106787,22.6236947 53.7871094,23.2617188 C53.6139314,23.6035173 53.5182293,24.0774709 53.5,24.6835938 L52.2490234,24.6835938 C52.2626954,23.8313759 52.4199204,23.1363959 52.7207031,22.5986328 C53.2539089,21.6507114 54.1949802,21.1767578 55.5439453,21.1767578 C56.6650447,21.1767578 57.4842097,21.4798147 58.0014648,22.0859375 C58.51872,22.6920603 58.7773438,23.3665327 58.7773438,24.109375 C58.7773438,24.8932331 58.5016304,25.5631483 57.9501953,26.1191406 C57.6311833,26.44271 57.0592489,26.8346331 56.234375,27.2949219 L55.2978516,27.8144531 C54.8512347,28.0605481 54.5003268,28.2952463 54.2451172,28.5185547 C53.7893857,28.915041 53.5022792,29.3548153 53.3837891,29.8378906 L58.7294922,29.8378906 L58.7294922,31 L52.0097656,31 C52.0553388,30.1568968 52.2296534,29.4231802 52.5327148,28.7988281 L52.5327148,28.7988281 Z M65.8935547,22.7763672 C66.3310569,23.5830118 66.5498047,24.688144 66.5498047,26.0917969 C66.5498047,27.4225327 66.3515645,28.5231076 65.9550781,29.3935547 C65.3808565,30.6422588 64.4420638,31.2666016 63.1386719,31.2666016 C61.9628847,31.2666016 61.0878935,30.75619 60.5136719,29.7353516 C60.0351539,28.8831338 59.7958984,27.739265 59.7958984,26.3037109 C59.7958984,25.1917262 59.9394517,24.2369832 60.2265625,23.4394531 C60.7643256,21.9537686 61.7372976,21.2109375 63.1455078,21.2109375 C64.4124412,21.2109375 65.3284477,21.7327422 65.8935547,22.7763672 L65.8935547,22.7763672 Z M64.65625,29.2978516 C65.0345071,28.7327446 65.2236328,27.6800207 65.2236328,26.1396484 C65.2236328,25.0276637 65.0869154,24.1127966 64.8134766,23.3950195 C64.5400377,22.6772425 64.0091185,22.3183594 63.2207031,22.3183594 C62.4960901,22.3183594 61.9663103,22.6590135 61.6313477,23.340332 C61.296385,24.0216505 61.1289062,25.025384 61.1289062,26.3515625 C61.1289062,27.3496144 61.2360015,28.1516897 61.4501953,28.7578125 C61.778322,29.6829473 62.3388632,30.1455078 63.1318359,30.1455078 C63.76986,30.1455078 64.2779929,29.8629586 64.65625,29.2978516 L64.65625,29.2978516 Z M67.3496094,23.6787109 L68.9423828,23.6787109 L70.6240234,26.2558594 L72.3261719,23.6787109 L73.8232422,23.7128906 L71.3554688,27.2470703 L73.9326172,31 L72.3603516,31 L70.5419922,28.2519531 L68.7783203,31 L67.2197266,31 L69.796875,27.2470703 L67.3496094,23.6787109 Z M75.484375,24.0683594 L75.484375,23.125 C76.3730513,23.038411 76.9928368,22.8937185 77.34375,22.690918 C77.6946632,22.4881175 77.9567049,22.0084673 78.1298828,21.2519531 L79.1005859,21.2519531 L79.1005859,31 L77.7880859,31 L77.7880859,24.0683594 L75.484375,24.0683594 Z M88.4658203,22.7763672 C88.9033225,23.5830118 89.1220703,24.688144 89.1220703,26.0917969 C89.1220703,27.4225327 88.9238301,28.5231076 88.5273438,29.3935547 C87.9531221,30.6422588 87.0143294,31.2666016 85.7109375,31.2666016 C84.5351504,31.2666016 83.6601591,30.75619 83.0859375,29.7353516 C82.6074195,28.8831338 82.3681641,27.739265 82.3681641,26.3037109 C82.3681641,25.1917262 82.5117173,24.2369832 82.7988281,23.4394531 C83.3365912,21.9537686 84.3095633,21.2109375 85.7177734,21.2109375 C86.9847069,21.2109375 87.9007133,21.7327422 88.4658203,22.7763672 L88.4658203,22.7763672 Z M87.2285156,29.2978516 C87.6067727,28.7327446 87.7958984,27.6800207 87.7958984,26.1396484 C87.7958984,25.0276637 87.6591811,24.1127966 87.3857422,23.3950195 C87.1123033,22.6772425 86.5813842,22.3183594 85.7929688,22.3183594 C85.0683558,22.3183594 84.5385759,22.6590135 84.2036133,23.340332 C83.8686507,24.0216505 83.7011719,25.025384 83.7011719,26.3515625 C83.7011719,27.3496144 83.8082672,28.1516897 84.0224609,28.7578125 C84.3505876,29.6829473 84.9111288,30.1455078 85.7041016,30.1455078 C86.3421256,30.1455078 86.8502585,29.8629586 87.2285156,29.2978516 L87.2285156,29.2978516 Z M94.7958984,24.8579102 C95.1012385,24.5548487 95.2539062,24.193687 95.2539062,23.7744141 C95.2539062,23.4098289 95.1080744,23.0748713 94.8164062,22.7695312 C94.5247381,22.4641912 94.0804066,22.3115234 93.4833984,22.3115234 C92.8909476,22.3115234 92.4625664,22.4641912 92.1982422,22.7695312 C91.9339179,23.0748713 91.8017578,23.4326151 91.8017578,23.8427734 C91.8017578,24.3030622 91.9726545,24.6630846 92.3144531,24.9228516 C92.6562517,25.1826185 93.059568,25.3125 93.5244141,25.3125 C94.0667345,25.3125 94.4905584,25.1609716 94.7958984,24.8579102 L94.7958984,24.8579102 Z M95.0180664,29.6977539 C95.3940448,29.3901352 95.5820312,28.9309926 95.5820312,28.3203125 C95.5820312,27.6868458 95.3883483,27.2060563 95.0009766,26.8779297 C94.6136048,26.549803 94.116865,26.3857422 93.5107422,26.3857422 C92.9228486,26.3857422 92.4431985,26.553221 92.0717773,26.8881836 C91.7003562,27.2231462 91.5146484,27.686846 91.5146484,28.2792969 C91.5146484,28.7897161 91.6844059,29.2306297 92.0239258,29.6020508 C92.3634457,29.9734719 92.8886683,30.1591797 93.5996094,30.1591797 C94.1692737,30.1591797 94.642088,30.0053726 95.0180664,29.6977539 L95.0180664,29.6977539 Z M91.0498047,25.2714844 C90.6897768,24.9068992 90.5097656,24.4329456 90.5097656,23.8496094 C90.5097656,23.1204391 90.7740859,22.4938177 91.3027344,21.9697266 C91.8313829,21.4456354 92.5810498,21.1835938 93.5517578,21.1835938 C94.4905646,21.1835938 95.2265598,21.4308244 95.7597656,21.925293 C96.2929714,22.4197616 96.5595703,22.9973925 96.5595703,23.6582031 C96.5595703,24.2688833 96.4046239,24.7633445 96.0947266,25.1416016 C95.9215486,25.3557953 95.6526711,25.5654287 95.2880859,25.7705078 C95.6936869,25.9573577 96.0126942,26.1715483 96.2451172,26.4130859 C96.6780621,26.8688174 96.8945312,27.4612594 96.8945312,28.1904297 C96.8945312,29.0517621 96.6051461,29.7820608 96.0263672,30.3813477 C95.4475883,30.9806345 94.6295626,31.2802734 93.5722656,31.2802734 C92.6197869,31.2802734 91.8142937,31.0216497 91.1557617,30.5043945 C90.4972298,29.9871393 90.1679688,29.236333 90.1679688,28.2519531 C90.1679688,27.6731742 90.3092434,27.1730164 90.5917969,26.7514648 C90.8743504,26.3299133 91.293617,26.0074881 91.8496094,25.7841797 C91.5078108,25.6383456 91.2412119,25.4674489 91.0498047,25.2714844 L91.0498047,25.2714844 Z M104.038086,22.7763672 C104.475588,23.5830118 104.694336,24.688144 104.694336,26.0917969 C104.694336,27.4225327 104.496096,28.5231076 104.099609,29.3935547 C103.525388,30.6422588 102.586595,31.2666016 101.283203,31.2666016 C100.107416,31.2666016 99.2324247,30.75619 98.6582031,29.7353516 C98.1796851,28.8831338 97.9404297,27.739265 97.9404297,26.3037109 C97.9404297,25.1917262 98.0839829,24.2369832 98.3710938,23.4394531 C98.9088569,21.9537686 99.8818289,21.2109375 101.290039,21.2109375 C102.556972,21.2109375 103.472979,21.7327422 104.038086,22.7763672 L104.038086,22.7763672 Z M102.800781,29.2978516 C103.179038,28.7327446 103.368164,27.6800207 103.368164,26.1396484 C103.368164,25.0276637 103.231447,24.1127966 102.958008,23.3950195 C102.684569,22.6772425 102.15365,22.3183594 101.365234,22.3183594 C100.640621,22.3183594 100.110842,22.6590135 99.7758789,23.340332 C99.4409163,24.0216505 99.2734375,25.025384 99.2734375,26.3515625 C99.2734375,27.3496144 99.3805328,28.1516897 99.5947266,28.7578125 C99.9228532,29.6829473 100.483394,30.1455078 101.276367,30.1455078 C101.914391,30.1455078 102.422524,29.8629586 102.800781,29.2978516 L102.800781,29.2978516 Z M37.3398438,41.0683594 L37.3398438,40.125 C38.2285201,40.038411 38.8483055,39.8937185 39.1992188,39.690918 C39.550132,39.4881175 39.8121736,39.0084673 39.9853516,38.2519531 L40.9560547,38.2519531 L40.9560547,48 L39.6435547,48 L39.6435547,41.0683594 L37.3398438,41.0683594 Z M45.6455078,45.6347656 C45.6819663,46.3138055 45.944008,46.7832018 46.4316406,47.0429688 C46.6822929,47.1796882 46.9648422,47.2480469 47.2792969,47.2480469 C47.8671904,47.2480469 48.3684875,47.0030949 48.7832031,46.5131836 C49.1979187,46.0232723 49.4918611,45.0286533 49.6650391,43.5292969 C49.3916002,43.9622417 49.0532247,44.2664379 48.6499023,44.4418945 C48.24658,44.6173511 47.8125023,44.7050781 47.3476562,44.7050781 C46.4042922,44.7050781 45.6580431,44.4111358 45.1088867,43.8232422 C44.5597303,43.2353486 44.2851562,42.4788458 44.2851562,41.5537109 C44.2851562,40.6650346 44.5563124,39.8834669 45.0986328,39.2089844 C45.6409532,38.5345018 46.4407499,38.1972656 47.4980469,38.1972656 C48.9244863,38.1972656 49.9088515,38.8398373 50.4511719,40.125 C50.7519546,40.8313837 50.9023438,41.7154895 50.9023438,42.7773438 C50.9023438,43.9759175 50.7223325,45.0377558 50.3623047,45.9628906 C49.7652965,47.5032629 48.7535879,48.2734375 47.3271484,48.2734375 C46.3701124,48.2734375 45.6432317,48.022789 45.1464844,47.5214844 C44.6497371,47.0201798 44.4013672,46.3912798 44.4013672,45.6347656 L45.6455078,45.6347656 Z M48.8481445,43.1430664 C49.2514669,42.8217757 49.453125,42.2600952 49.453125,41.4580078 C49.453125,40.7379521 49.2719745,40.2013364 48.909668,39.8481445 C48.5473615,39.4949527 48.0859403,39.3183594 47.5253906,39.3183594 C46.9238251,39.3183594 46.4464536,39.5200175 46.0932617,39.9233398 C45.7400698,40.3266622 45.5634766,40.8655565 45.5634766,41.5400391 C45.5634766,42.1780631 45.7184229,42.6850567 46.0283203,43.0610352 C46.3382177,43.4370136 46.8326789,43.625 47.5117188,43.625 C47.9993514,43.625 48.4448222,43.4643571 48.8481445,43.1430664 L48.8481445,43.1430664 Z M52.5327148,45.7988281 C52.8357763,45.174476 53.4270789,44.6070989 54.3066406,44.0966797 L55.6191406,43.3378906 C56.2070342,42.996092 56.619465,42.7044283 56.8564453,42.4628906 C57.2301451,42.0846335 57.4169922,41.6516951 57.4169922,41.1640625 C57.4169922,40.5943982 57.2460955,40.1420915 56.9042969,39.8071289 C56.5624983,39.4721663 56.1067737,39.3046875 55.5371094,39.3046875 C54.6940062,39.3046875 54.1106787,39.6236947 53.7871094,40.2617188 C53.6139314,40.6035173 53.5182293,41.0774709 53.5,41.6835938 L52.2490234,41.6835938 C52.2626954,40.8313759 52.4199204,40.1363959 52.7207031,39.5986328 C53.2539089,38.6507114 54.1949802,38.1767578 55.5439453,38.1767578 C56.6650447,38.1767578 57.4842097,38.4798147 58.0014648,39.0859375 C58.51872,39.6920603 58.7773438,40.3665327 58.7773438,41.109375 C58.7773438,41.8932331 58.5016304,42.5631483 57.9501953,43.1191406 C57.6311833,43.44271 57.0592489,43.8346331 56.234375,44.2949219 L55.2978516,44.8144531 C54.8512347,45.0605481 54.5003268,45.2952463 54.2451172,45.5185547 C53.7893857,45.915041 53.5022792,46.3548153 53.3837891,46.8378906 L58.7294922,46.8378906 L58.7294922,48 L52.0097656,48 C52.0553388,47.1568968 52.2296534,46.4231802 52.5327148,45.7988281 L52.5327148,45.7988281 Z M65.8935547,39.7763672 C66.3310569,40.5830118 66.5498047,41.688144 66.5498047,43.0917969 C66.5498047,44.4225327 66.3515645,45.5231076 65.9550781,46.3935547 C65.3808565,47.6422588 64.4420638,48.2666016 63.1386719,48.2666016 C61.9628847,48.2666016 61.0878935,47.75619 60.5136719,46.7353516 C60.0351539,45.8831338 59.7958984,44.739265 59.7958984,43.3037109 C59.7958984,42.1917262 59.9394517,41.2369832 60.2265625,40.4394531 C60.7643256,38.9537686 61.7372976,38.2109375 63.1455078,38.2109375 C64.4124412,38.2109375 65.3284477,38.7327422 65.8935547,39.7763672 L65.8935547,39.7763672 Z M64.65625,46.2978516 C65.0345071,45.7327446 65.2236328,44.6800207 65.2236328,43.1396484 C65.2236328,42.0276637 65.0869154,41.1127966 64.8134766,40.3950195 C64.5400377,39.6772425 64.0091185,39.3183594 63.2207031,39.3183594 C62.4960901,39.3183594 61.9663103,39.6590135 61.6313477,40.340332 C61.296385,41.0216505 61.1289062,42.025384 61.1289062,43.3515625 C61.1289062,44.3496144 61.2360015,45.1516897 61.4501953,45.7578125 C61.778322,46.6829473 62.3388632,47.1455078 63.1318359,47.1455078 C63.76986,47.1455078 64.2779929,46.8629586 64.65625,46.2978516 L64.65625,46.2978516 Z M67.3496094,40.6787109 L68.9423828,40.6787109 L70.6240234,43.2558594 L72.3261719,40.6787109 L73.8232422,40.7128906 L71.3554688,44.2470703 L73.9326172,48 L72.3603516,48 L70.5419922,45.2519531 L68.7783203,48 L67.2197266,48 L69.796875,44.2470703 L67.3496094,40.6787109 Z M75.484375,41.0683594 L75.484375,40.125 C76.3730513,40.038411 76.9928368,39.8937185 77.34375,39.690918 C77.6946632,39.4881175 77.9567049,39.0084673 78.1298828,38.2519531 L79.1005859,38.2519531 L79.1005859,48 L77.7880859,48 L77.7880859,41.0683594 L75.484375,41.0683594 Z M88.4658203,39.7763672 C88.9033225,40.5830118 89.1220703,41.688144 89.1220703,43.0917969 C89.1220703,44.4225327 88.9238301,45.5231076 88.5273438,46.3935547 C87.9531221,47.6422588 87.0143294,48.2666016 85.7109375,48.2666016 C84.5351504,48.2666016 83.6601591,47.75619 83.0859375,46.7353516 C82.6074195,45.8831338 82.3681641,44.739265 82.3681641,43.3037109 C82.3681641,42.1917262 82.5117173,41.2369832 82.7988281,40.4394531 C83.3365912,38.9537686 84.3095633,38.2109375 85.7177734,38.2109375 C86.9847069,38.2109375 87.9007133,38.7327422 88.4658203,39.7763672 L88.4658203,39.7763672 Z M87.2285156,46.2978516 C87.6067727,45.7327446 87.7958984,44.6800207 87.7958984,43.1396484 C87.7958984,42.0276637 87.6591811,41.1127966 87.3857422,40.3950195 C87.1123033,39.6772425 86.5813842,39.3183594 85.7929688,39.3183594 C85.0683558,39.3183594 84.5385759,39.6590135 84.2036133,40.340332 C83.8686507,41.0216505 83.7011719,42.025384 83.7011719,43.3515625 C83.7011719,44.3496144 83.8082672,45.1516897 84.0224609,45.7578125 C84.3505876,46.6829473 84.9111288,47.1455078 85.7041016,47.1455078 C86.3421256,47.1455078 86.8502585,46.8629586 87.2285156,46.2978516 L87.2285156,46.2978516 Z M94.7958984,41.8579102 C95.1012385,41.5548487 95.2539062,41.193687 95.2539062,40.7744141 C95.2539062,40.4098289 95.1080744,40.0748713 94.8164062,39.7695312 C94.5247381,39.4641912 94.0804066,39.3115234 93.4833984,39.3115234 C92.8909476,39.3115234 92.4625664,39.4641912 92.1982422,39.7695312 C91.9339179,40.0748713 91.8017578,40.4326151 91.8017578,40.8427734 C91.8017578,41.3030622 91.9726545,41.6630846 92.3144531,41.9228516 C92.6562517,42.1826185 93.059568,42.3125 93.5244141,42.3125 C94.0667345,42.3125 94.4905584,42.1609716 94.7958984,41.8579102 L94.7958984,41.8579102 Z M95.0180664,46.6977539 C95.3940448,46.3901352 95.5820312,45.9309926 95.5820312,45.3203125 C95.5820312,44.6868458 95.3883483,44.2060563 95.0009766,43.8779297 C94.6136048,43.549803 94.116865,43.3857422 93.5107422,43.3857422 C92.9228486,43.3857422 92.4431985,43.553221 92.0717773,43.8881836 C91.7003562,44.2231462 91.5146484,44.686846 91.5146484,45.2792969 C91.5146484,45.7897161 91.6844059,46.2306297 92.0239258,46.6020508 C92.3634457,46.9734719 92.8886683,47.1591797 93.5996094,47.1591797 C94.1692737,47.1591797 94.642088,47.0053726 95.0180664,46.6977539 L95.0180664,46.6977539 Z M91.0498047,42.2714844 C90.6897768,41.9068992 90.5097656,41.4329456 90.5097656,40.8496094 C90.5097656,40.1204391 90.7740859,39.4938177 91.3027344,38.9697266 C91.8313829,38.4456354 92.5810498,38.1835938 93.5517578,38.1835938 C94.4905646,38.1835938 95.2265598,38.4308244 95.7597656,38.925293 C96.2929714,39.4197616 96.5595703,39.9973925 96.5595703,40.6582031 C96.5595703,41.2688833 96.4046239,41.7633445 96.0947266,42.1416016 C95.9215486,42.3557953 95.6526711,42.5654287 95.2880859,42.7705078 C95.6936869,42.9573577 96.0126942,43.1715483 96.2451172,43.4130859 C96.6780621,43.8688174 96.8945312,44.4612594 96.8945312,45.1904297 C96.8945312,46.0517621 96.6051461,46.7820608 96.0263672,47.3813477 C95.4475883,47.9806345 94.6295626,48.2802734 93.5722656,48.2802734 C92.6197869,48.2802734 91.8142937,48.0216497 91.1557617,47.5043945 C90.4972298,46.9871393 90.1679688,46.236333 90.1679688,45.2519531 C90.1679688,44.6731742 90.3092434,44.1730164 90.5917969,43.7514648 C90.8743504,43.3299133 91.293617,43.0074881 91.8496094,42.7841797 C91.5078108,42.6383456 91.2412119,42.4674489 91.0498047,42.2714844 L91.0498047,42.2714844 Z M104.038086,39.7763672 C104.475588,40.5830118 104.694336,41.688144 104.694336,43.0917969 C104.694336,44.4225327 104.496096,45.5231076 104.099609,46.3935547 C103.525388,47.6422588 102.586595,48.2666016 101.283203,48.2666016 C100.107416,48.2666016 99.2324247,47.75619 98.6582031,46.7353516 C98.1796851,45.8831338 97.9404297,44.739265 97.9404297,43.3037109 C97.9404297,42.1917262 98.0839829,41.2369832 98.3710938,40.4394531 C98.9088569,38.9537686 99.8818289,38.2109375 101.290039,38.2109375 C102.556972,38.2109375 103.472979,38.7327422 104.038086,39.7763672 L104.038086,39.7763672 Z M102.800781,46.2978516 C103.179038,45.7327446 103.368164,44.6800207 103.368164,43.1396484 C103.368164,42.0276637 103.231447,41.1127966 102.958008,40.3950195 C102.684569,39.6772425 102.15365,39.3183594 101.365234,39.3183594 C100.640621,39.3183594 100.110842,39.6590135 99.7758789,40.340332 C99.4409163,41.0216505 99.2734375,42.025384 99.2734375,43.3515625 C99.2734375,44.3496144 99.3805328,45.1516897 99.5947266,45.7578125 C99.9228532,46.6829473 100.483394,47.1455078 101.276367,47.1455078 C101.914391,47.1455078 102.422524,46.8629586 102.800781,46.2978516 L102.800781,46.2978516 Z M113.321289,37.7939453 C112.605791,39.1839262 112.140952,40.207028 111.926758,40.8632812 C111.603188,41.8613331 111.441406,43.0143164 111.441406,44.3222656 C111.441406,45.6438868 111.625975,46.851557 111.995117,47.9453125 C112.222983,48.619795 112.671872,49.5904885 113.341797,50.8574219 L112.514648,50.8574219 C111.849281,49.8183542 111.43685,49.1552749 111.277344,48.8681641 C111.117838,48.5810533 110.944662,48.1914087 110.757812,47.6992188 C110.502603,47.0247362 110.32487,46.3046913 110.224609,45.5390625 C110.174479,45.1425761 110.149414,44.7643247 110.149414,44.4042969 C110.149414,43.0553318 110.361326,41.8544975 110.785156,40.8017578 C111.054038,40.1318326 111.614579,39.1292384 112.466797,37.7939453 L113.321289,37.7939453 Z M114.941406,37.9580078 L116.31543,37.9580078 L116.31543,42.1074219 L121.538086,42.1074219 L121.538086,37.9580078 L122.912109,37.9580078 L122.912109,48 L121.538086,48 L121.538086,43.3037109 L116.31543,43.3037109 L116.31543,48 L114.941406,48 L114.941406,37.9580078 Z M124.853516,40.7128906 L126.104492,40.7128906 L126.104492,48 L124.853516,48 L124.853516,40.7128906 Z M124.853516,37.9580078 L126.104492,37.9580078 L126.104492,39.3525391 L124.853516,39.3525391 L124.853516,37.9580078 Z M131.983398,46.8378906 C132.443687,46.8378906 132.821939,46.7900395 133.118164,46.6943359 C133.646813,46.5166007 134.079751,46.1748072 134.416992,45.6689453 C134.685874,45.2633443 134.879557,44.7438183 134.998047,44.1103516 C135.066407,43.7320945 135.100586,43.3811865 135.100586,43.0576172 C135.100586,41.8134703 134.853355,40.8473342 134.358887,40.1591797 C133.864418,39.4710252 133.068039,39.1269531 131.969727,39.1269531 L129.556641,39.1269531 L129.556641,46.8378906 L131.983398,46.8378906 Z M128.189453,37.9580078 L132.256836,37.9580078 C133.637702,37.9580078 134.708655,38.4479118 135.469727,39.4277344 C136.148766,40.3118534 136.488281,41.444329 136.488281,42.8251953 C136.488281,43.8916069 136.287762,44.8554644 135.886719,45.7167969 C135.180335,47.2389399 133.965829,48 132.243164,48 L128.189453,48 L128.189453,37.9580078 Z M138.368164,37.9580078 L142.886719,37.9580078 C143.779952,37.9580078 144.499997,38.2097957 145.046875,38.7133789 C145.593753,39.2169622 145.867188,39.9244746 145.867188,40.8359375 C145.867188,41.6197956 145.623375,42.3022432 145.135742,42.8833008 C144.64811,43.4643584 143.898443,43.7548828 142.886719,43.7548828 L139.728516,43.7548828 L139.728516,48 L138.368164,48 L138.368164,37.9580078 Z M143.672852,39.3388672 C143.372069,39.1975904 142.959638,39.1269531 142.435547,39.1269531 L139.728516,39.1269531 L139.728516,42.6064453 L142.435547,42.6064453 C143.046227,42.6064453 143.541828,42.4765638 143.922363,42.2167969 C144.302899,41.95703 144.493164,41.4990267 144.493164,40.8427734 C144.493164,40.1044885 144.219729,39.6031914 143.672852,39.3388672 L143.672852,39.3388672 Z M147.883789,37.9580078 L149.257812,37.9580078 L149.257812,48 L147.883789,48 L147.883789,37.9580078 Z M150.884766,50.8574219 C151.609379,49.4446544 152.076496,48.4147168 152.286133,47.7675781 C152.605145,46.7877555 152.764648,45.6393295 152.764648,44.3222656 C152.764648,43.0052017 152.58008,41.7998102 152.210938,40.7060547 C151.983072,40.0315721 151.534183,39.0608787 150.864258,37.7939453 L151.691406,37.7939453 C152.393233,38.9150447 152.818196,39.6066068 152.966309,39.8686523 C153.114421,40.1306979 153.275064,40.4918597 153.448242,40.9521484 C153.666993,41.5218127 153.823079,42.0846326 153.916504,42.640625 C154.009929,43.1966174 154.056641,43.7320938 154.056641,44.2470703 C154.056641,45.5960354 153.84245,46.7991484 153.414062,47.8564453 C153.145181,48.5354852 152.586918,49.5358007 151.739258,50.8574219 L150.884766,50.8574219 Z M36.9604492,62.7988281 C37.2635106,62.174476 37.8548133,61.6070989 38.734375,61.0966797 L40.046875,60.3378906 C40.6347686,59.996092 41.0471993,59.7044283 41.2841797,59.4628906 C41.6578795,59.0846335 41.8447266,58.6516951 41.8447266,58.1640625 C41.8447266,57.5943982 41.6738298,57.1420915 41.3320312,56.8071289 C40.9902327,56.4721663 40.5345081,56.3046875 39.9648438,56.3046875 C39.1217406,56.3046875 38.5384131,56.6236947 38.2148438,57.2617188 C38.0416658,57.6035173 37.9459636,58.0774709 37.9277344,58.6835938 L36.6767578,58.6835938 C36.6904298,57.8313759 36.8476547,57.1363959 37.1484375,56.5986328 C37.6816433,55.6507114 38.6227146,55.1767578 39.9716797,55.1767578 C41.092779,55.1767578 41.911944,55.4798147 42.4291992,56.0859375 C42.9464544,56.6920603 43.2050781,57.3665327 43.2050781,58.109375 C43.2050781,58.8932331 42.9293647,59.5631483 42.3779297,60.1191406 C42.0589177,60.44271 41.4869833,60.8346331 40.6621094,61.2949219 L39.7255859,61.8144531 C39.2789691,62.0605481 38.9280612,62.2952463 38.6728516,62.5185547 C38.2171201,62.915041 37.9300136,63.3548153 37.8115234,63.8378906 L43.1572266,63.8378906 L43.1572266,65 L36.4375,65 C36.4830731,64.1568968 36.6573878,63.4231802 36.9604492,62.7988281 L36.9604492,62.7988281 Z M45.515625,62.5048828 C45.5976567,63.2067092 45.9234998,63.6920559 46.4931641,63.9609375 C46.7848322,64.0976569 47.1220684,64.1660156 47.5048828,64.1660156 C48.2340531,64.1660156 48.7740868,63.9335961 49.125,63.46875 C49.4759132,63.0039039 49.6513672,62.4889351 49.6513672,61.9238281 C49.6513672,61.240231 49.4428732,60.7115904 49.0258789,60.3378906 C48.6088846,59.9641908 48.1087269,59.7773438 47.5253906,59.7773438 C47.1015604,59.7773438 46.73812,59.8593742 46.4350586,60.0234375 C46.1319972,60.1875008 45.8733735,60.4153631 45.6591797,60.7070312 L44.5927734,60.6455078 L45.3378906,55.375 L50.4238281,55.375 L50.4238281,56.5644531 L46.2607422,56.5644531 L45.84375,59.2851562 C46.0716157,59.1119783 46.2880849,58.9820968 46.4931641,58.8955078 C46.8577492,58.7451164 47.2792945,58.6699219 47.7578125,58.6699219 C48.6556034,58.6699219 49.4166635,58.959307 50.0410156,59.5380859 C50.6653677,60.1168649 50.9775391,60.8505815 50.9775391,61.7392578 C50.9775391,62.6643926 50.6915719,63.4801397 50.1196289,64.1865234 C49.5476859,64.8929072 48.6350974,65.2460938 47.3818359,65.2460938 C46.5843059,65.2460938 45.8790721,65.0216494 45.2661133,64.5727539 C44.6531545,64.1238584 44.3102217,63.434575 44.2373047,62.5048828 L45.515625,62.5048828 Z M57.9536133,56.0209961 C58.3842795,56.5883817 58.5996094,57.1728486 58.5996094,57.7744141 L57.3828125,57.7744141 C57.3098955,57.3870423 57.1936857,57.0839855 57.0341797,56.8652344 C56.7379542,56.4550761 56.2890655,56.25 55.6875,56.25 C54.9993455,56.25 54.452476,56.5678679 54.046875,57.2036133 C53.641274,57.8393586 53.4156903,58.7496686 53.3701172,59.9345703 C53.6526707,59.5198547 54.0081359,59.209962 54.4365234,59.0048828 C54.8284525,58.8225902 55.2659481,58.7314453 55.7490234,58.7314453 C56.56934,58.7314453 57.2848277,58.993487 57.8955078,59.5175781 C58.5061879,60.0416693 58.8115234,60.823237 58.8115234,61.8623047 C58.8115234,62.750981 58.5221383,63.5382453 57.9433594,64.2241211 C57.3645804,64.9099969 56.5397189,65.2529297 55.46875,65.2529297 C54.5527298,65.2529297 53.7620476,64.9054397 53.0966797,64.2104492 C52.4313118,63.5154588 52.0986328,62.3453858 52.0986328,60.7001953 C52.0986328,59.4833924 52.2467433,58.4511761 52.5429688,57.6035156 C53.1126331,55.9811117 54.1539638,55.1699219 55.6669922,55.1699219 C56.7607477,55.1699219 57.5229471,55.4536104 57.9536133,56.0209961 L57.9536133,56.0209961 Z M57.0307617,63.5063477 C57.3520524,63.0711241 57.5126953,62.5572946 57.5126953,61.9648438 C57.5126953,61.4635392 57.3691421,60.9861676 57.0820312,60.5327148 C56.7949204,60.0792621 56.2731158,59.8525391 55.5166016,59.8525391 C54.9879531,59.8525391 54.5242533,60.027993 54.1254883,60.3789062 C53.7267233,60.7298195 53.5273438,61.25846 53.5273438,61.9648438 C53.5273438,62.5846385 53.7084943,63.1053039 54.0708008,63.5268555 C54.4331073,63.9484071 54.9355437,64.1591797 55.578125,64.1591797 C56.2252637,64.1591797 56.709471,63.9415712 57.0307617,63.5063477 L57.0307617,63.5063477 Z M65.8935547,56.7763672 C66.3310569,57.5830118 66.5498047,58.688144 66.5498047,60.0917969 C66.5498047,61.4225327 66.3515645,62.5231076 65.9550781,63.3935547 C65.3808565,64.6422588 64.4420638,65.2666016 63.1386719,65.2666016 C61.9628847,65.2666016 61.0878935,64.75619 60.5136719,63.7353516 C60.0351539,62.8831338 59.7958984,61.739265 59.7958984,60.3037109 C59.7958984,59.1917262 59.9394517,58.2369832 60.2265625,57.4394531 C60.7643256,55.9537686 61.7372976,55.2109375 63.1455078,55.2109375 C64.4124412,55.2109375 65.3284477,55.7327422 65.8935547,56.7763672 L65.8935547,56.7763672 Z M64.65625,63.2978516 C65.0345071,62.7327446 65.2236328,61.6800207 65.2236328,60.1396484 C65.2236328,59.0276637 65.0869154,58.1127966 64.8134766,57.3950195 C64.5400377,56.6772425 64.0091185,56.3183594 63.2207031,56.3183594 C62.4960901,56.3183594 61.9663103,56.6590135 61.6313477,57.340332 C61.296385,58.0216505 61.1289062,59.025384 61.1289062,60.3515625 C61.1289062,61.3496144 61.2360015,62.1516897 61.4501953,62.7578125 C61.778322,63.6829473 62.3388632,64.1455078 63.1318359,64.1455078 C63.76986,64.1455078 64.2779929,63.8629586 64.65625,63.2978516 L64.65625,63.2978516 Z M67.3496094,57.6787109 L68.9423828,57.6787109 L70.6240234,60.2558594 L72.3261719,57.6787109 L73.8232422,57.7128906 L71.3554688,61.2470703 L73.9326172,65 L72.3603516,65 L70.5419922,62.2519531 L68.7783203,65 L67.2197266,65 L69.796875,61.2470703 L67.3496094,57.6787109 Z M75.484375,58.0683594 L75.484375,57.125 C76.3730513,57.038411 76.9928368,56.8937185 77.34375,56.690918 C77.6946632,56.4881175 77.9567049,56.0084673 78.1298828,55.2519531 L79.1005859,55.2519531 L79.1005859,65 L77.7880859,65 L77.7880859,58.0683594 L75.484375,58.0683594 Z M86.5585938,61.5341797 L86.5585938,57.0976562 L83.4208984,61.5341797 L86.5585938,61.5341797 Z M86.5791016,65 L86.5791016,62.6074219 L82.2861328,62.6074219 L82.2861328,61.4042969 L86.7705078,55.1835938 L87.8095703,55.1835938 L87.8095703,61.5341797 L89.2519531,61.5341797 L89.2519531,62.6074219 L87.8095703,62.6074219 L87.8095703,65 L86.5791016,65 Z M94.3447266,61.5341797 L94.3447266,57.0976562 L91.2070312,61.5341797 L94.3447266,61.5341797 Z M94.3652344,65 L94.3652344,62.6074219 L90.0722656,62.6074219 L90.0722656,61.4042969 L94.5566406,55.1835938 L95.5957031,55.1835938 L95.5957031,61.5341797 L97.0380859,61.5341797 L97.0380859,62.6074219 L95.5957031,62.6074219 L95.5957031,65 L94.3652344,65 Z M104.038086,56.7763672 C104.475588,57.5830118 104.694336,58.688144 104.694336,60.0917969 C104.694336,61.4225327 104.496096,62.5231076 104.099609,63.3935547 C103.525388,64.6422588 102.586595,65.2666016 101.283203,65.2666016 C100.107416,65.2666016 99.2324247,64.75619 98.6582031,63.7353516 C98.1796851,62.8831338 97.9404297,61.739265 97.9404297,60.3037109 C97.9404297,59.1917262 98.0839829,58.2369832 98.3710938,57.4394531 C98.9088569,55.9537686 99.8818289,55.2109375 101.290039,55.2109375 C102.556972,55.2109375 103.472979,55.7327422 104.038086,56.7763672 L104.038086,56.7763672 Z M102.800781,63.2978516 C103.179038,62.7327446 103.368164,61.6800207 103.368164,60.1396484 C103.368164,59.0276637 103.231447,58.1127966 102.958008,57.3950195 C102.684569,56.6772425 102.15365,56.3183594 101.365234,56.3183594 C100.640621,56.3183594 100.110842,56.6590135 99.7758789,57.340332 C99.4409163,58.0216505 99.2734375,59.025384 99.2734375,60.3515625 C99.2734375,61.3496144 99.3805328,62.1516897 99.5947266,62.7578125 C99.9228532,63.6829473 100.483394,64.1455078 101.276367,64.1455078 C101.914391,64.1455078 102.422524,63.8629586 102.800781,63.2978516 L102.800781,63.2978516 Z M36.9604492,79.7988281 C37.2635106,79.174476 37.8548133,78.6070989 38.734375,78.0966797 L40.046875,77.3378906 C40.6347686,76.996092 41.0471993,76.7044283 41.2841797,76.4628906 C41.6578795,76.0846335 41.8447266,75.6516951 41.8447266,75.1640625 C41.8447266,74.5943982 41.6738298,74.1420915 41.3320312,73.8071289 C40.9902327,73.4721663 40.5345081,73.3046875 39.9648438,73.3046875 C39.1217406,73.3046875 38.5384131,73.6236947 38.2148438,74.2617188 C38.0416658,74.6035173 37.9459636,75.0774709 37.9277344,75.6835938 L36.6767578,75.6835938 C36.6904298,74.8313759 36.8476547,74.1363959 37.1484375,73.5986328 C37.6816433,72.6507114 38.6227146,72.1767578 39.9716797,72.1767578 C41.092779,72.1767578 41.911944,72.4798147 42.4291992,73.0859375 C42.9464544,73.6920603 43.2050781,74.3665327 43.2050781,75.109375 C43.2050781,75.8932331 42.9293647,76.5631483 42.3779297,77.1191406 C42.0589177,77.44271 41.4869833,77.8346331 40.6621094,78.2949219 L39.7255859,78.8144531 C39.2789691,79.0605481 38.9280612,79.2952463 38.6728516,79.5185547 C38.2171201,79.915041 37.9300136,80.3548153 37.8115234,80.8378906 L43.1572266,80.8378906 L43.1572266,82 L36.4375,82 C36.4830731,81.1568968 36.6573878,80.4231802 36.9604492,79.7988281 L36.9604492,79.7988281 Z M45.515625,79.5048828 C45.5976567,80.2067092 45.9234998,80.6920559 46.4931641,80.9609375 C46.7848322,81.0976569 47.1220684,81.1660156 47.5048828,81.1660156 C48.2340531,81.1660156 48.7740868,80.9335961 49.125,80.46875 C49.4759132,80.0039039 49.6513672,79.4889351 49.6513672,78.9238281 C49.6513672,78.240231 49.4428732,77.7115904 49.0258789,77.3378906 C48.6088846,76.9641908 48.1087269,76.7773438 47.5253906,76.7773438 C47.1015604,76.7773438 46.73812,76.8593742 46.4350586,77.0234375 C46.1319972,77.1875008 45.8733735,77.4153631 45.6591797,77.7070312 L44.5927734,77.6455078 L45.3378906,72.375 L50.4238281,72.375 L50.4238281,73.5644531 L46.2607422,73.5644531 L45.84375,76.2851562 C46.0716157,76.1119783 46.2880849,75.9820968 46.4931641,75.8955078 C46.8577492,75.7451164 47.2792945,75.6699219 47.7578125,75.6699219 C48.6556034,75.6699219 49.4166635,75.959307 50.0410156,76.5380859 C50.6653677,77.1168649 50.9775391,77.8505815 50.9775391,78.7392578 C50.9775391,79.6643926 50.6915719,80.4801397 50.1196289,81.1865234 C49.5476859,81.8929072 48.6350974,82.2460938 47.3818359,82.2460938 C46.5843059,82.2460938 45.8790721,82.0216494 45.2661133,81.5727539 C44.6531545,81.1238584 44.3102217,80.434575 44.2373047,79.5048828 L45.515625,79.5048828 Z M57.9536133,73.0209961 C58.3842795,73.5883817 58.5996094,74.1728486 58.5996094,74.7744141 L57.3828125,74.7744141 C57.3098955,74.3870423 57.1936857,74.0839855 57.0341797,73.8652344 C56.7379542,73.4550761 56.2890655,73.25 55.6875,73.25 C54.9993455,73.25 54.452476,73.5678679 54.046875,74.2036133 C53.641274,74.8393586 53.4156903,75.7496686 53.3701172,76.9345703 C53.6526707,76.5198547 54.0081359,76.209962 54.4365234,76.0048828 C54.8284525,75.8225902 55.2659481,75.7314453 55.7490234,75.7314453 C56.56934,75.7314453 57.2848277,75.993487 57.8955078,76.5175781 C58.5061879,77.0416693 58.8115234,77.823237 58.8115234,78.8623047 C58.8115234,79.750981 58.5221383,80.5382453 57.9433594,81.2241211 C57.3645804,81.9099969 56.5397189,82.2529297 55.46875,82.2529297 C54.5527298,82.2529297 53.7620476,81.9054397 53.0966797,81.2104492 C52.4313118,80.5154588 52.0986328,79.3453858 52.0986328,77.7001953 C52.0986328,76.4833924 52.2467433,75.4511761 52.5429688,74.6035156 C53.1126331,72.9811117 54.1539638,72.1699219 55.6669922,72.1699219 C56.7607477,72.1699219 57.5229471,72.4536104 57.9536133,73.0209961 L57.9536133,73.0209961 Z M57.0307617,80.5063477 C57.3520524,80.0711241 57.5126953,79.5572946 57.5126953,78.9648438 C57.5126953,78.4635392 57.3691421,77.9861676 57.0820312,77.5327148 C56.7949204,77.0792621 56.2731158,76.8525391 55.5166016,76.8525391 C54.9879531,76.8525391 54.5242533,77.027993 54.1254883,77.3789062 C53.7267233,77.7298195 53.5273438,78.25846 53.5273438,78.9648438 C53.5273438,79.5846385 53.7084943,80.1053039 54.0708008,80.5268555 C54.4331073,80.9484071 54.9355437,81.1591797 55.578125,81.1591797 C56.2252637,81.1591797 56.709471,80.9415712 57.0307617,80.5063477 L57.0307617,80.5063477 Z M65.8935547,73.7763672 C66.3310569,74.5830118 66.5498047,75.688144 66.5498047,77.0917969 C66.5498047,78.4225327 66.3515645,79.5231076 65.9550781,80.3935547 C65.3808565,81.6422588 64.4420638,82.2666016 63.1386719,82.2666016 C61.9628847,82.2666016 61.0878935,81.75619 60.5136719,80.7353516 C60.0351539,79.8831338 59.7958984,78.739265 59.7958984,77.3037109 C59.7958984,76.1917262 59.9394517,75.2369832 60.2265625,74.4394531 C60.7643256,72.9537686 61.7372976,72.2109375 63.1455078,72.2109375 C64.4124412,72.2109375 65.3284477,72.7327422 65.8935547,73.7763672 L65.8935547,73.7763672 Z M64.65625,80.2978516 C65.0345071,79.7327446 65.2236328,78.6800207 65.2236328,77.1396484 C65.2236328,76.0276637 65.0869154,75.1127966 64.8134766,74.3950195 C64.5400377,73.6772425 64.0091185,73.3183594 63.2207031,73.3183594 C62.4960901,73.3183594 61.9663103,73.6590135 61.6313477,74.340332 C61.296385,75.0216505 61.1289062,76.025384 61.1289062,77.3515625 C61.1289062,78.3496144 61.2360015,79.1516897 61.4501953,79.7578125 C61.778322,80.6829473 62.3388632,81.1455078 63.1318359,81.1455078 C63.76986,81.1455078 64.2779929,80.8629586 64.65625,80.2978516 L64.65625,80.2978516 Z M67.3496094,74.6787109 L68.9423828,74.6787109 L70.6240234,77.2558594 L72.3261719,74.6787109 L73.8232422,74.7128906 L71.3554688,78.2470703 L73.9326172,82 L72.3603516,82 L70.5419922,79.2519531 L68.7783203,82 L67.2197266,82 L69.796875,78.2470703 L67.3496094,74.6787109 Z M75.484375,75.0683594 L75.484375,74.125 C76.3730513,74.038411 76.9928368,73.8937185 77.34375,73.690918 C77.6946632,73.4881175 77.9567049,73.0084673 78.1298828,72.2519531 L79.1005859,72.2519531 L79.1005859,82 L77.7880859,82 L77.7880859,75.0683594 L75.484375,75.0683594 Z M86.5585938,78.5341797 L86.5585938,74.0976562 L83.4208984,78.5341797 L86.5585938,78.5341797 Z M86.5791016,82 L86.5791016,79.6074219 L82.2861328,79.6074219 L82.2861328,78.4042969 L86.7705078,72.1835938 L87.8095703,72.1835938 L87.8095703,78.5341797 L89.2519531,78.5341797 L89.2519531,79.6074219 L87.8095703,79.6074219 L87.8095703,82 L86.5791016,82 Z M94.3447266,78.5341797 L94.3447266,74.0976562 L91.2070312,78.5341797 L94.3447266,78.5341797 Z M94.3652344,82 L94.3652344,79.6074219 L90.0722656,79.6074219 L90.0722656,78.4042969 L94.5566406,72.1835938 L95.5957031,72.1835938 L95.5957031,78.5341797 L97.0380859,78.5341797 L97.0380859,79.6074219 L95.5957031,79.6074219 L95.5957031,82 L94.3652344,82 Z M104.038086,73.7763672 C104.475588,74.5830118 104.694336,75.688144 104.694336,77.0917969 C104.694336,78.4225327 104.496096,79.5231076 104.099609,80.3935547 C103.525388,81.6422588 102.586595,82.2666016 101.283203,82.2666016 C100.107416,82.2666016 99.2324247,81.75619 98.6582031,80.7353516 C98.1796851,79.8831338 97.9404297,78.739265 97.9404297,77.3037109 C97.9404297,76.1917262 98.0839829,75.2369832 98.3710938,74.4394531 C98.9088569,72.9537686 99.8818289,72.2109375 101.290039,72.2109375 C102.556972,72.2109375 103.472979,72.7327422 104.038086,73.7763672 L104.038086,73.7763672 Z M102.800781,80.2978516 C103.179038,79.7327446 103.368164,78.6800207 103.368164,77.1396484 C103.368164,76.0276637 103.231447,75.1127966 102.958008,74.3950195 C102.684569,73.6772425 102.15365,73.3183594 101.365234,73.3183594 C100.640621,73.3183594 100.110842,73.6590135 99.7758789,74.340332 C99.4409163,75.0216505 99.2734375,76.025384 99.2734375,77.3515625 C99.2734375,78.3496144 99.3805328,79.1516897 99.5947266,79.7578125 C99.9228532,80.6829473 100.483394,81.1455078 101.276367,81.1455078 C101.914391,81.1455078 102.422524,80.8629586 102.800781,80.2978516 L102.800781,80.2978516 Z M113.321289,71.7939453 C112.605791,73.1839262 112.140952,74.207028 111.926758,74.8632812 C111.603188,75.8613331 111.441406,77.0143164 111.441406,78.3222656 C111.441406,79.6438868 111.625975,80.851557 111.995117,81.9453125 C112.222983,82.619795 112.671872,83.5904885 113.341797,84.8574219 L112.514648,84.8574219 C111.849281,83.8183542 111.43685,83.1552749 111.277344,82.8681641 C111.117838,82.5810533 110.944662,82.1914087 110.757812,81.6992188 C110.502603,81.0247362 110.32487,80.3046913 110.224609,79.5390625 C110.174479,79.1425761 110.149414,78.7643247 110.149414,78.4042969 C110.149414,77.0553318 110.361326,75.8544975 110.785156,74.8017578 C111.054038,74.1318326 111.614579,73.1292384 112.466797,71.7939453 L113.321289,71.7939453 Z M114.941406,71.9580078 L116.31543,71.9580078 L116.31543,76.1074219 L121.538086,76.1074219 L121.538086,71.9580078 L122.912109,71.9580078 L122.912109,82 L121.538086,82 L121.538086,77.3037109 L116.31543,77.3037109 L116.31543,82 L114.941406,82 L114.941406,71.9580078 Z M124.853516,74.7128906 L126.104492,74.7128906 L126.104492,82 L124.853516,82 L124.853516,74.7128906 Z M124.853516,71.9580078 L126.104492,71.9580078 L126.104492,73.3525391 L124.853516,73.3525391 L124.853516,71.9580078 Z M131.983398,80.8378906 C132.443687,80.8378906 132.821939,80.7900395 133.118164,80.6943359 C133.646813,80.5166007 134.079751,80.1748072 134.416992,79.6689453 C134.685874,79.2633443 134.879557,78.7438183 134.998047,78.1103516 C135.066407,77.7320945 135.100586,77.3811865 135.100586,77.0576172 C135.100586,75.8134703 134.853355,74.8473342 134.358887,74.1591797 C133.864418,73.4710252 133.068039,73.1269531 131.969727,73.1269531 L129.556641,73.1269531 L129.556641,80.8378906 L131.983398,80.8378906 Z M128.189453,71.9580078 L132.256836,71.9580078 C133.637702,71.9580078 134.708655,72.4479118 135.469727,73.4277344 C136.148766,74.3118534 136.488281,75.444329 136.488281,76.8251953 C136.488281,77.8916069 136.287762,78.8554644 135.886719,79.7167969 C135.180335,81.2389399 133.965829,82 132.243164,82 L128.189453,82 L128.189453,71.9580078 Z M138.368164,71.9580078 L142.886719,71.9580078 C143.779952,71.9580078 144.499997,72.2097957 145.046875,72.7133789 C145.593753,73.2169622 145.867188,73.9244746 145.867188,74.8359375 C145.867188,75.6197956 145.623375,76.3022432 145.135742,76.8833008 C144.64811,77.4643584 143.898443,77.7548828 142.886719,77.7548828 L139.728516,77.7548828 L139.728516,82 L138.368164,82 L138.368164,71.9580078 Z M143.672852,73.3388672 C143.372069,73.1975904 142.959638,73.1269531 142.435547,73.1269531 L139.728516,73.1269531 L139.728516,76.6064453 L142.435547,76.6064453 C143.046227,76.6064453 143.541828,76.4765638 143.922363,76.2167969 C144.302899,75.95703 144.493164,75.4990267 144.493164,74.8427734 C144.493164,74.1044885 144.219729,73.6031914 143.672852,73.3388672 L143.672852,73.3388672 Z M147.883789,71.9580078 L149.257812,71.9580078 L149.257812,82 L147.883789,82 L147.883789,71.9580078 Z M150.884766,84.8574219 C151.609379,83.4446544 152.076496,82.4147168 152.286133,81.7675781 C152.605145,80.7877555 152.764648,79.6393295 152.764648,78.3222656 C152.764648,77.0052017 152.58008,75.7998102 152.210938,74.7060547 C151.983072,74.0315721 151.534183,73.0608787 150.864258,71.7939453 L151.691406,71.7939453 C152.393233,72.9150447 152.818196,73.6066068 152.966309,73.8686523 C153.114421,74.1306979 153.275064,74.4918597 153.448242,74.9521484 C153.666993,75.5218127 153.823079,76.0846326 153.916504,76.640625 C154.009929,77.1966174 154.056641,77.7320938 154.056641,78.2470703 C154.056641,79.5960354 153.84245,80.7991484 153.414062,81.8564453 C153.145181,82.5354852 152.586918,83.5358007 151.739258,84.8574219 L150.884766,84.8574219 Z" id="1920x1080-" fill="#979797"></path>
            <use id="Rectangle-1" stroke="#979797" mask="url(#mask-4)" stroke-width="6" fill="#D8D8D8" xlink:href="#path-3"></use>
            <use id="Rectangle-1" stroke="#979797" mask="url(#mask-6)" stroke-width="6" fill="#D8D8D8" xlink:href="#path-5"></use>
            <polygon id="Line" fill="#979797" points="29.1821464 78.1140349 12.1821464 92.1140349 11.7961813 92.4318885 12.4318885 93.2038187 12.8178536 92.8859651 29.8178536 78.8859651 30.2038187 78.5681115 29.5681115 77.7961813"></polygon>
            <polygon id="Line" fill="#979797" points="150.817854 25.8859651 167.817854 11.8859651 168.203819 11.5681115 167.568111 10.7961813 167.182146 11.1140349 150.182146 25.1140349 149.796181 25.4318885 150.431889 26.2038187"></polygon>
            <polygon id="Polygon-1" fill="#979797" transform="translate(163.621335, 14.315973) rotate(-310.000000) translate(-163.621335, -14.315973) " points="163.621335 5.70381654 171.715664 22.9281293 155.527006 22.9281293"></polygon>
            <polygon id="Polygon-1" fill="#979797" transform="translate(15.800229, 89.736403) rotate(-130.000000) translate(-15.800229, -89.736403) " points="15.8002291 81.124247 23.8945583 98.3485597 7.70589985 98.3485597"></polygon>
        </g>
    </g>
</svg>